<svg width="82" height="41" viewBox="0 0 82 41" fill="none" xmlns="http://www.w3.org/2000/svg">
<path fill-rule="evenodd" clip-rule="evenodd" d="M6.67196 23.8438C6.40419 23.3508 6.01535 22.9141 5.51525 22.5824C3.88082 21.498 1.67681 21.9439 0.592457 23.5784C-0.491894 25.2128 -0.045966 27.4168 1.58847 28.5012C2.03645 28.7984 2.52723 28.9806 3.02601 29.0549C2.95526 29.2756 2.89052 29.502 2.8318 29.7339C2.55738 30.8179 2.48437 31.945 2.61278 33.1152C2.74986 34.2719 3.14714 35.3948 3.80463 36.484C4.47079 37.5597 5.4738 38.5267 6.81366 39.385C8.24827 40.3039 9.66678 40.8308 11.0692 40.9657C12.4803 41.087 13.7919 40.8869 15.004 40.3653C16.216 39.8438 17.2384 39.0672 18.0711 38.0354L14.2951 35.6167C13.6656 36.3014 12.8719 36.6615 11.914 36.6968C10.9696 36.7408 10.0237 36.4594 9.07636 35.8526C7.87183 35.081 7.1783 34.0928 6.99575 32.8879C6.8132 31.683 7.14673 30.4173 7.99632 29.091C8.84592 27.7647 9.84261 26.9239 10.9864 26.5686C12.1437 26.2219 13.3111 26.4257 14.4886 27.1799C15.4224 27.7781 16.0489 28.5135 16.368 29.3859C16.6958 30.2449 16.6847 31.0967 16.3345 31.9412L20.1105 34.36C20.7738 33.0861 21.0778 31.7921 21.0226 30.4778C20.976 29.15 20.5853 27.8977 19.8504 26.7207C19.1377 25.5389 18.1047 24.5145 16.7512 23.6476C15.4791 22.8326 14.2306 22.3383 13.0058 22.1645C11.781 21.9908 10.6164 22.0656 9.5122 22.389C8.4758 22.7045 7.52906 23.1894 6.67196 23.8438ZM24.4882 22.6874V40.2868H35.6265V36.3812H28.9724V22.6874H24.4882ZM43.0405 22.6874L37.399 40.2868H41.8833L43.1369 36.2125H50.1526L51.4304 40.2868H56.0592L50.2249 22.6874H43.0405ZM48.9954 32.5479H44.2459L46.1505 26.3037H47.0425L48.9954 32.5479ZM59.9637 40.2868L55.7688 22.6874H60.3977L63.4354 36.7187H64.014L66.3044 23.3142H70.7163L73.3923 36.7187H73.971L76.5988 22.6874H80.9384L77.2497 40.2868H70.427L68.4741 30.9085L66.6419 40.2868H59.9637Z" fill="url(#paint0_linear_240_4601)"/>
<path d="M71.9891 9.80042L74.3333 7.45621L76.6775 9.80042L74.3333 12.1446L71.9891 9.80042Z" fill="white"/>
<path fill-rule="evenodd" clip-rule="evenodd" d="M74.3335 5.22088C71.8042 5.22088 69.7538 7.27127 69.7538 9.80055C69.7538 12.3298 71.8042 14.3802 74.3335 14.3802C76.8628 14.3802 78.9132 12.3298 78.9132 9.80055C78.9132 7.27127 76.8628 5.22088 74.3335 5.22088ZM67.5621 9.80055C67.5621 6.06082 70.5938 3.02917 74.3335 3.02917C78.0732 3.02917 81.1049 6.06082 81.1049 9.80055C81.1049 13.5403 78.0732 16.5719 74.3335 16.5719C70.5938 16.5719 67.5621 13.5403 67.5621 9.80055Z" fill="white"/>
<path d="M7.57108 16.4044C6.23706 16.4044 5.03966 16.1232 3.97887 15.5606C2.91808 14.9981 2.09035 14.2186 1.49566 13.2221C0.90098 12.2095 0.603638 11.0683 0.603638 9.79861C0.603638 8.52888 0.90098 7.39577 1.49566 6.39927C2.09035 5.40277 2.91005 4.62326 3.95476 4.06072C5.01555 3.49818 6.22099 3.21691 7.57108 3.21691C8.84081 3.21691 9.94982 3.47407 10.8981 3.98839C11.8625 4.50271 12.5857 5.24205 13.0679 6.2064L10.7534 7.5565C10.3838 6.96181 9.91767 6.51982 9.35513 6.23051C8.80867 5.92513 8.20595 5.77244 7.54697 5.77244C6.4219 5.77244 5.48969 6.14211 4.75035 6.88145C4.01102 7.60471 3.64135 8.5771 3.64135 9.79861C3.64135 11.0201 4.00298 12.0006 4.72624 12.7399C5.46558 13.4632 6.40582 13.8248 7.54697 13.8248C8.20595 13.8248 8.80867 13.6801 9.35513 13.3908C9.91767 13.0854 10.3838 12.6354 10.7534 12.0407L13.0679 13.3908C12.5696 14.3552 11.8383 15.1026 10.874 15.6329C9.92571 16.1473 8.82474 16.4044 7.57108 16.4044Z" fill="white"/>
<path d="M18.5419 5.24205C19.4098 3.89196 20.9367 3.21691 23.1226 3.21691V6.08586C22.8654 6.03764 22.6324 6.01353 22.4234 6.01353C21.2501 6.01353 20.334 6.35909 19.675 7.05021C19.016 7.72526 18.6866 8.70568 18.6866 9.99148V16.2357H15.673V3.36156H18.5419V5.24205Z" fill="white"/>
<path d="M38.261 3.36156V14.2829C38.261 18.8153 36.035 21.0815 31.5829 21.0815C30.4096 21.0815 29.2845 20.9208 28.2077 20.5994C27.1469 20.294 26.2709 19.844 25.5798 19.2493L26.9299 16.983C27.4764 17.4491 28.1434 17.8188 28.9309 18.092C29.7185 18.3653 30.5462 18.5019 31.4141 18.5019C32.7321 18.5019 33.6964 18.1804 34.3072 17.5375C34.934 16.9107 35.2474 15.9383 35.2474 14.6204V14.0177C34.7653 14.548 34.1786 14.9579 33.4875 15.2472C32.7964 15.5204 32.049 15.6571 31.2454 15.6571C29.5256 15.6571 28.1675 15.1829 27.171 14.2346C26.1906 13.2864 25.7003 11.8639 25.7003 9.96738V3.36156H28.7139V9.58163C28.7139 10.7228 28.9711 11.5827 29.4854 12.1613C30.0158 12.7238 30.7632 13.0051 31.7275 13.0051C32.8044 13.0051 33.6562 12.6756 34.2831 12.0166C34.926 11.3576 35.2474 10.4013 35.2474 9.14768V3.36156H38.261Z" fill="white"/>
<path d="M49.343 3.21691C50.5966 3.21691 51.7137 3.49014 52.6941 4.03661C53.6906 4.58308 54.4701 5.35456 55.0327 6.35105C55.5952 7.34755 55.8765 8.49674 55.8765 9.79861C55.8765 11.1005 55.5952 12.2577 55.0327 13.2703C54.4701 14.2668 53.6906 15.0383 52.6941 15.5847C51.7137 16.1312 50.5966 16.4044 49.343 16.4044C47.6072 16.4044 46.2329 15.8258 45.2204 14.6686V20.9128H42.2068V3.36156H45.0757V5.04918C45.574 4.43842 46.1847 3.98036 46.908 3.67498C47.6473 3.3696 48.459 3.21691 49.343 3.21691ZM49.0055 13.8248C50.1145 13.8248 51.0226 13.4551 51.7298 12.7158C52.453 11.9764 52.8147 11.0041 52.8147 9.79861C52.8147 8.59317 52.453 7.62079 51.7298 6.88145C51.0226 6.14211 50.1145 5.77244 49.0055 5.77244C48.2822 5.77244 47.6313 5.94121 47.0527 6.27873C46.474 6.60018 46.016 7.06628 45.6784 7.67704C45.3409 8.2878 45.1722 8.99499 45.1722 9.79861C45.1722 10.6022 45.3409 11.3094 45.6784 11.9202C46.016 12.5309 46.474 13.0051 47.0527 13.3426C47.6313 13.6641 48.2822 13.8248 49.0055 13.8248Z" fill="white"/>
<path d="M65.9671 15.5365C65.6135 15.8258 65.1796 16.0428 64.6653 16.1874C64.167 16.3321 63.6366 16.4044 63.0741 16.4044C61.6597 16.4044 60.5668 16.0348 59.7953 15.2954C59.0238 14.5561 58.6381 13.4792 58.6381 12.0648V0.516724H61.6517V3.458H65.0992V5.86888H61.6517V11.9925C61.6517 12.6193 61.8043 13.1015 62.1097 13.439C62.4312 13.7605 62.8732 13.9212 63.4357 13.9212C64.1108 13.9212 64.6733 13.7444 65.1233 13.3908L65.9671 15.5365Z" fill="white"/>
<defs>
<linearGradient id="paint0_linear_240_4601" x1="77.4193" y1="21.9899" x2="-0.566591" y2="25.7813" gradientUnits="userSpaceOnUse">
<stop stop-color="#2FC4E4"/>
<stop offset="1" stop-color="#8D23E1"/>
</linearGradient>
</defs>
</svg>
