<svg width="22" height="22" viewBox="0 0 22 22" fill="none" xmlns="http://www.w3.org/2000/svg">
<path d="M11 20.1666C5.93725 20.1666 1.83333 16.0627 1.83333 11C1.83333 5.93723 5.93725 1.83331 11 1.83331C16.0627 1.83331 20.1667 5.93723 20.1667 11C20.1667 16.0627 16.0627 20.1666 11 20.1666ZM11 18.3333C12.9449 18.3333 14.8102 17.5607 16.1854 16.1854C17.5607 14.8102 18.3333 12.9449 18.3333 11C18.3333 9.05506 17.5607 7.1898 16.1854 5.81453C14.8102 4.43926 12.9449 3.66665 11 3.66665C9.05507 3.66665 7.18981 4.43926 5.81455 5.81453C4.43928 7.1898 3.66666 9.05506 3.66666 11C3.66666 12.9449 4.43928 14.8102 5.81455 16.1854C7.18981 17.5607 9.05507 18.3333 11 18.3333ZM11 6.46248L15.5375 11L11 15.5375L6.4625 11L11 6.46248ZM11 9.05573L9.05574 11L11 12.9442L12.9442 11L11 9.05573Z" fill="url(#paint0_linear_240_4597)"/>
<defs>
<linearGradient id="paint0_linear_240_4597" x1="19.3696" y1="1.83332" x2="1.66555" y2="2.03547" gradientUnits="userSpaceOnUse">
<stop stop-color="#2FC4E4"/>
<stop offset="1" stop-color="#8D23E1"/>
</linearGradient>
</defs>
</svg>
